<?xml version="1.0" encoding="UTF-8"?> <!-- Generator: Adobe Illustrator 24.2.1, SVG Export Plug-In . SVG Version: 6.00 Build 0) --> <svg xmlns="http://www.w3.org/2000/svg" xmlns:xlink="http://www.w3.org/1999/xlink" version="1.1" id="Calque_1" x="0px" y="0px" viewBox="0 0 340.2 213.9" style="enable-background:new 0 0 340.2 213.9;" xml:space="preserve"> <style type="text/css"> .st0{fill:#A5C523;} </style> <path class="st0" d="M331.2,88.9l0.3-0.6c2.5-4.5,4.3-10.3,5.5-14.3c2.2-8.4,3.9-21.4-1.4-34.7c-5.7-13.1-16.1-21.1-23.9-25.6 c-3.4-1.8-8.8-4.6-13.8-6l-0.6-0.2c-3.8-1.4-7.6-2.2-11.6-3.1L283.4,4c-9-1.6-17.7-2.2-25.9-2.2c-9.8,0-19,0.8-27.3,1.8 c-31,4.2-61.9,13.5-97.2,29.4C99.9,48.3,72.1,66,48,86.8c-14.8,12.7-25.7,24.7-34.4,37.9c-5.7,8.9-9.3,16.3-11.4,24.3 c-1.8,7.1-3.1,18,1.3,28.7C8,188.2,16.6,194.9,23,198.7c7,4,14.8,6.8,25.2,9c13.1,2.7,31,3.6,46.6,2.8v-17.2 c-8.1,0.9-15.5,1.4-22.4,1.4c-7.8,0-14.9-0.6-21.4-1.8c-8.3-1.6-15.3-3.9-20.8-6.9c-6.5-3.8-11-8.3-13.5-13.4l-0.4-0.9 c-1.9-5.4-1.9-11.7-0.1-18.8c1.8-6.3,5-12.9,9.8-19.8c7.4-10.8,18.1-21.6,32.7-33.1c22.8-17.4,50.1-32,83.5-44.6 c31.7-11.6,62.3-18.5,91.1-20.5c16.1-1.3,31.3-0.6,43.8,2.1c7,1.4,13.3,3.7,17.7,6.3c4.3,2.8,7.2,5.6,8.7,8.7l0.5,1.3 c1.1,3.2,1.1,7.3,0.1,12l-0.1,0.3c-1.2,5-4.1,11-8.1,17.1c-3.3,5.1-7.4,10.4-12.1,15.6h41.8C327.8,95.1,329.7,92.2,331.2,88.9z"></path> </svg> 