<?xml version="1.0" encoding="UTF-8"?> <!-- Generator: Adobe Illustrator 24.2.1, SVG Export Plug-In . SVG Version: 6.00 Build 0) --> <svg xmlns="http://www.w3.org/2000/svg" xmlns:xlink="http://www.w3.org/1999/xlink" version="1.1" id="Capa_1" x="0px" y="0px" viewBox="0 0 415.9 415.9" style="enable-background:new 0 0 415.9 415.9;" xml:space="preserve"> <style type="text/css"> .st0{fill:#A5C523;} </style> <g> <path class="st0" d="M125.9,170.8c-5.7-6.3-15.7-6.8-21.9-1c-6.3,5.7-6.8,15.7-1,21.9l78.9,85.7c3.1,3.1,6.8,5.2,11,5.2 c0,0,0,0,0.5,0c4.2,0,8.4-1.6,11-4.7L403.9,78.9c6.3-6.3,6.3-16.2,0-21.9c-6.3-6.3-16.2-6.3-21.9,0L193.8,244.5L125.9,170.8z"></path> <path class="st0" d="M400.2,192.3c-8.9,0-15.7,6.8-15.7,15.7c0,97.2-79.4,176.6-176.6,176.6S31.3,305.1,31.3,207.9 S110.8,31.3,207.9,31.3c8.9,0,15.7-6.8,15.7-15.7S216.8,0,207.9,0C93.5,0,0,93.5,0,207.9s93.5,207.9,207.9,207.9 s207.9-93.5,207.9-207.9C415.9,199.1,409.1,192.3,400.2,192.3z"></path> </g> </svg> 